<?xml version="1.0" standalone="yes"?>
<svg xmlns="http://www.w3.org/2000/svg" width="505" height="505">
<rect width="100%" height="100%" rx="100" ry="100" style="fill:#000000; stroke:none;" />
<path style="fill:#fafafa; stroke:none;" d="M148.004 73.5725C139.382 76.0755 136.6 87.237 132.194 93.9105C119.311 113.42 106.624 133.528 95.3349 154C84.0203 174.518 71.6816 195.416 58.831 215C53.934 222.463 49.5087 230.263 45.1034 238.015C42.7098 242.226 39.7849 246.048 39.186 251C38.3364 258.024 41.9942 264.262 45.5903 270C50.7786 278.278 56.4417 286.539 61.2083 295.015C79.9042 328.258 100.805 360.672 121.124 393C126.268 401.184 131.382 409.637 136.254 418C139.15 422.971 141.512 428.847 146.129 432.57C150.441 436.047 156.824 435 162 435L199 435L308 435L341 435C346.379 435 352.785 435.924 358 434.427C366.924 431.867 370.075 421.088 374.428 414C385.472 396.02 396.31 377.848 407.53 360C417.666 343.877 427.025 327.328 436.822 311C442.883 300.897 449.771 291.442 455.262 281C459.522 272.896 468.738 264.277 469.863 254.91C470.625 248.573 466.508 243.103 463.369 238.001C457.45 228.379 451.612 218.702 445.823 209C429.024 180.851 411.019 153.317 394.514 125C387.898 113.65 381.532 102.115 374.53 91C371.317 85.8997 368.615 80.2304 363.96 76.2284C359.14 72.0849 352.933 73 347 73L311 73L199 73L165 73C159.632 73 153.204 72.0628 148.004 73.5725z"/>
<path style="fill:#020202; stroke:none;" d="M159.055 92.7423C155.86 94.0536 154.577 97.226 152.914 100.001C150.067 104.754 146.884 109.293 143.964 114C131.606 133.917 119.278 153.8 107.325 173.961C96.6809 191.913 85.9444 210.09 74.7199 227.715C71.7353 232.401 69.1458 237.326 66.1358 242C63.9165 245.446 61.0974 248.671 61.1489 252.996C61.2336 260.109 69.7328 269.738 73.7392 275.424C77.4157 280.642 79.8623 286.54 83.2531 291.91C88.1095 299.602 93.6549 307.061 98.0995 315C111.409 338.772 126.11 361.818 140.388 385C143.7 390.376 147.614 395.519 150.688 401.004C153.142 405.385 155.194 411.265 159.326 414.397C162.859 417.074 168.833 416 173 416L205 416L304 416L333 416C337.281 416 342.922 416.94 346.985 415.397C350.736 413.971 352.51 410.229 354.445 407C357.891 401.252 361.786 395.917 364.942 390C375.663 369.901 389.023 350.456 400.911 331C411.446 313.759 421.301 295.927 432.344 279C436.915 271.994 446.448 261.663 446.816 253C447.088 246.576 440.432 240.355 437.478 235.001C427.857 217.561 416.628 201.101 406.453 184C393.836 162.796 380.1 142.169 367.524 120.961C363.767 114.625 359.706 108.392 356.039 102C354.298 98.9643 353.01 94.8725 349.812 93.0278C344.991 90.2474 336.233 92.0971 331 92.7145C322.168 93.7566 312.887 93 304 93L201 93C191.36 93 181.631 93.3824 172 92.9606C167.833 92.7781 163.104 91.0804 159.055 92.7423z"/>
<path style="fill:#fafafa; stroke:none;" d="M229 172C232.881 168.199 232 163.132 232 158C232 147.949 229.713 134.662 232.549 125C234.235 119.255 238.804 112.193 234.258 106.344C227.001 97.0097 209.958 105.221 213.514 116.999C215.124 122.332 220.491 122.857 222.972 127.143C225.217 131.022 224 137.674 224 142C224 153.084 222.543 162.578 229 172M253 203L255 203C258.434 194.947 258 186.584 258 178L258 145C258 139.505 257.282 133.446 258.148 128.015C258.949 122.989 264.259 120.849 265.566 115.999C267.095 110.324 264.033 104.089 257.999 103.148C252.364 102.269 244.488 103.408 243.228 110.04C241.464 119.332 250.237 121.927 250.941 130C252.343 146.073 251 162.861 251 179C251 186.954 249.845 195.554 253 203M279 171C286.492 163.67 285 148.933 285 139C285 135.601 284.328 131.277 285.603 128.054C288.312 121.21 300.504 117.926 294.821 108.21C290.93 101.558 279.316 101.776 274.603 107.418C272.568 109.854 272.722 114.022 273.344 116.961C274.067 120.374 276.883 122.656 277.687 126.015C279.011 131.546 278 138.331 278 144C278 152.607 276.553 162.72 279 171M165.38 106.028C154.877 112.638 171.854 128.057 175.975 134C194.184 160.26 213.099 185.941 231.715 211.91C237.02 219.311 242.205 226.783 247.765 233.999C249.32 236.017 251.684 240.594 254.867 239.654C257.853 238.773 260.195 234.297 262 232C267.812 224.603 272.833 216.603 278.388 208.999C293.366 188.497 307.842 167.614 322.823 147.17C327.694 140.524 332.174 133.614 337.127 127C339.894 123.305 344.079 119.321 345.778 115C348.219 108.79 341.057 105.484 336.004 105.573C327.971 105.715 323.377 119.301 319.255 124.83C303.619 145.801 289.027 167.719 273.746 189C269.418 195.028 265.49 201.173 260.91 207.039C259.315 209.082 257.045 212.783 253.986 212.369C251.66 212.054 249.738 209.658 248.329 207.995C244.11 203.018 240.685 197.181 236.665 192C220.449 171.102 206.234 148.708 191.226 127C186.915 120.764 181.815 111.114 175.7 106.603C173.096 104.683 168.187 104.261 165.38 106.028z"/>
<path style="fill:#020202; stroke:none;" d="M223.589 111.136C220.868 112.959 223.474 117.976 226.411 115.917C229.088 114.041 226.479 109.199 223.589 111.136M250 112C252.238 115.41 253.926 116.31 258 116C257.568 110.459 254.764 109.505 250 112M281 116C281.801 116.106 283.206 116.455 284.102 116.353C291.579 115.498 284.227 106.557 281.318 113.069C280.977 113.832 281.056 115.297 281 116z"/>
<path style="fill:#fafafa; stroke:none;" d="M153 379C164.087 361.605 177.583 345.208 189.975 328.715C200.705 314.431 210.159 299.286 220.873 285C226.849 277.032 232.707 268.941 238.755 261.039C241.458 257.509 246.262 253.828 246.476 249C246.654 244.999 243.034 240.971 240.764 238C234.55 229.867 227.861 222.084 221.576 214C207.918 196.434 195.152 178.046 182.03 160.039C172.832 147.417 161.847 135.553 154 122C149.321 124.425 143.278 132.313 144.822 138C146.116 142.767 150.814 147.197 153.79 151C159.593 158.415 165.284 166.102 170.539 173.91C182.862 192.222 197.385 209.196 210.389 227L220.755 241C222.186 242.964 224.703 245.249 224.841 247.83C224.967 250.196 222.5 253.049 221.384 255.015C217.497 261.864 212.307 267.652 207.707 274C191.349 296.569 175.399 319.454 159.011 342C151.705 352.052 139.161 362.233 147.961 374.941C149.39 377.004 150.819 377.927 153 379M355 122C349.073 130.669 341.911 138.663 335.5 147C317.959 169.813 300.548 193.347 284.204 217.039C279.069 224.485 273.207 231.699 267.634 238.83C265.284 241.838 261.602 244.8 261.758 248.999C261.907 252.991 265.279 256.16 267.576 259.09C271.24 263.762 274.75 268.513 278.441 273.17C292.746 291.213 305.079 310.678 319 329C328.135 341.022 336.408 353.595 345.065 365.961C348.459 370.809 352.162 378.25 358 380L366 364C358.545 356.272 352.882 345.934 346.631 337.17C333.016 318.08 319.629 298.602 305.349 280C299.865 272.856 293.753 265.745 289.146 258C287.432 255.118 284.85 251.498 285.007 248C285.173 244.295 287.989 240.958 289.929 238C294.802 230.57 300.838 224.143 306.076 217C318.277 200.363 330.255 183.462 342.7 167.015C350.509 156.694 358.915 146.875 366 136C361.396 131.795 360.781 125.004 355 122M306 224L306 226C315.452 230.005 327.872 228 338 228C341.875 228 346.531 228.688 349.91 226.397C359.314 220.021 364.539 207.644 373.285 200.322C379.934 194.756 389.805 201.751 394.485 190.999C399.3 179.938 386.015 168.246 376.015 175.573C369.285 180.503 371.126 185.638 367.973 192C364.757 198.489 357.943 204.336 353.4 210C351.297 212.622 349.165 216.106 345.91 217.397C336.348 221.188 323.952 215.738 314.039 218.318C310.854 219.147 308.553 222.08 306 224M202 226C198.18 215.689 181.019 218.487 172 219.09C168.944 219.294 165.917 220.2 163.001 218.806C156.7 215.796 152.986 208.148 148.675 203C145.628 199.361 141.766 196.312 139.608 192C136.775 186.339 137.879 180.193 132.231 175.894C120.913 167.276 109.936 182.116 115.434 192.941C119.341 200.635 128.203 194.546 133.532 198.607C136.237 200.668 137.838 204.177 139.884 206.83C144.542 212.871 150.267 220.896 156.425 225.397C159.833 227.887 165.016 227 169 227C179.369 227 192.037 228.945 202 226z"/>
<path style="fill:#020202; stroke:none;" d="M122 183C122.038 184.16 121.876 185.766 122.318 186.897C124.822 193.303 132.303 185.822 125.897 183.318C124.766 182.876 123.16 183.038 122 183M381.318 184.086C378.026 186.103 381.372 190.985 384.397 188.914C387.269 186.949 384.478 182.15 381.318 184.086z"/>
<path style="fill:#fafafa; stroke:none;" d="M399 202.627C383.376 205.136 384.614 230.219 401 228.298C417.782 226.33 415.286 200.011 399 202.627M105 203.537C89.7753 207.055 95.2556 231.604 111 227.272C125.813 223.197 119.831 200.11 105 203.537z"/>
<path style="fill:#020202; stroke:none;" d="M106.313 212.801C101.914 214.579 105.25 221.369 109.686 219.377C113.864 217.501 110.387 211.154 106.313 212.801M396 218C396.821 218.339 398.172 219.082 399.145 219.233C408.388 220.667 401.742 206.946 396.743 214.988C396.225 215.821 396.182 217.125 396 218z"/>
<path style="fill:#fafafa; stroke:none;" d="M91 231.641C79.5865 232.554 74.8674 252.037 87.0432 255.566C94.7378 257.797 97.9534 253.023 104.015 250.023C106.755 248.667 110.035 249.001 113 249L188 249C194.987 249 202.068 249.383 209 248.424C210.857 248.166 213.862 248.324 215.338 246.974C217.899 244.631 214.071 241.866 211.981 241.318C205.68 239.666 197.497 241 191 241L137 241C127.827 241 118.116 241.915 109.001 240.891C101.404 240.038 99.4802 230.963 91 231.641M415 231.587C409.973 232.896 407.738 238.383 402.91 239.682C394.947 241.825 384.238 240 376 240L320 240C312.855 240 303.943 238.565 297.001 240.318C294.448 240.962 291.328 243.008 290.921 245.857C290.457 249.106 294.931 248.956 297.001 248.995C304.661 249.14 312.338 249 320 249C336.916 249 354.187 250.286 371 249.871C380.665 249.633 390.262 248.593 399.996 249.019C407.547 249.35 410.777 258.037 419 256.757C435.704 254.156 430.876 227.453 415 231.587z"/>
<path style="fill:#020202; stroke:none;" d="M89 248L95 248C94.9773 246.099 95.3336 243.329 93.973 241.76C89.8012 236.95 88.62 245.528 89 248M416.26 240.971C412.965 241.971 414.357 248.392 417.791 247.248C421.018 246.174 419.918 239.861 416.26 240.971z"/>
<path style="fill:#fafafa; stroke:none;" d="M159 391C162.474 393.798 165.827 401.545 170.95 400.623C174.281 400.024 175.521 396.539 177.113 393.999C180.543 388.527 184.348 383.217 188.151 378C204.59 355.452 219.288 331.654 235.615 309C238.5 304.997 241.79 301.118 244.421 296.961C246.593 293.53 248.941 288.521 252.989 286.921C256.118 285.685 258.211 288.867 259.866 291.005C264.862 297.46 268.966 304.509 273.885 311C290.74 333.243 304.618 357.543 321.116 380L332.657 395.981C334.22 398.116 336.001 400.842 339.036 400.534C343.641 400.067 349.051 392.464 347.766 388C345.553 380.312 336.616 372.529 332.036 366C322.655 352.628 314.275 338.525 304.831 325.17C296.741 313.728 287.907 302.646 280.09 291C274.6 282.823 269.095 274.759 263 267C260.965 264.409 258.802 260.356 255.83 258.752C252.075 256.723 249.283 261.522 247.35 264.001C241.356 271.686 235.625 279.833 230.34 288.003C224.098 297.654 216.45 306.486 209.963 316C201.426 328.522 193.294 341.457 184.575 353.83C178.207 362.866 171.698 371.76 165.61 380.985C163.351 384.408 160.543 387.181 159 391M398 259.587C382.399 263.656 386.63 289.637 402.91 285.584C419.656 281.415 414.61 255.256 398 259.587M104 260.742C88.3243 266.733 97.0018 291.02 111.999 284.99C126.362 279.215 119.858 254.681 104 260.742M300 261C302.817 269.032 307.241 269 315 269L335 269C338.236 269.001 341.955 268.592 344.91 270.179C349.441 272.612 352.419 278.077 355.51 282C359.877 287.542 365.869 292.455 369.392 298.576C372.639 304.216 371.076 309.881 377.425 314.062C385.355 319.284 398.769 308.413 395.583 299.715C393.596 294.291 390.007 290.353 384 290.048C380.721 289.882 376.419 291.507 373.594 289.357C364.19 282.2 360.301 268.503 350.714 261.603C347.063 258.976 341.253 260 337 260C325.459 260 311.08 257.725 300 261M135 292C125.77 289.074 108.521 291.896 113.746 306C115.568 310.919 120.341 312.837 124 316C128.566 314.366 134.867 312.247 137.142 307.56C138.775 304.195 138.016 300.374 140.008 297C143.037 291.869 147.793 287.609 151.54 283C155.418 278.231 159.333 271.862 165 269.028C167.997 267.529 171.755 268 175 268L194 268C200.361 268 205.329 268.671 208 262C197.478 258.89 183.955 261 173 261C168.691 261 162.966 260.042 159 262.028C152.851 265.107 148.692 272.585 144.823 277.985C141.43 282.721 137.592 286.712 135 292z"/>
<path style="fill:#020202; stroke:none;" d="M107.129 268.971C102.668 270.077 104.373 276.366 108.871 275.458C113.429 274.537 111.42 267.906 107.129 268.971M396 271C396.258 271.851 396.33 273.117 397.029 273.842C403.171 280.216 407.821 266.983 399.156 269.392C398.183 269.662 396.804 270.577 396 271z"/>
<path style="fill:#fafafa; stroke:none;" d="M253.299 296.176C250.622 297.482 251.018 301.566 251.001 304C250.95 311.333 251 318.667 251 326C251 342.536 253.089 360.627 250.811 376.999C249.786 384.368 241.96 386.769 242.635 394.999C243.383 404.128 253.123 408.263 260.956 404.276C266.166 401.625 267.365 394.246 265.397 389.015C263.906 385.053 259.604 383.162 258.434 378.985C256.751 372.983 258 365.203 258 359L258 318C258 312.196 258.786 305.753 257.852 300.019C257.503 297.875 255.999 294.858 253.299 296.176z"/>
<path style="fill:#020202; stroke:none;" d="M382.2 299.255C378.262 300.957 380.886 306.987 384.682 304.864C387.805 303.118 385.633 297.772 382.2 299.255M123.618 300.046C120.814 302.262 124.537 306.87 127.397 304.914C130.638 302.697 126.745 297.575 123.618 300.046z"/>
<path style="fill:#fafafa; stroke:none;" d="M229.071 328.342C221.538 330.595 224.009 345.384 224 351C223.992 356.048 223.064 360.967 223.004 366C222.956 370.008 223.797 374.97 222.486 378.816C220.569 384.439 213.767 386.388 213.152 393C212.288 402.294 220.916 406.762 228.999 404.427C234.048 402.97 237.046 398.192 236.721 393C236.439 388.502 232.8 385.377 232.147 381C230.466 369.719 231.54 356.399 232.039 345C232.227 340.705 233.551 336.336 232.852 332.02C232.538 330.083 231.52 327.609 229.071 328.342M278 327C275.465 331.75 276 336.72 276 342C276 348.196 275.387 354.756 276.129 360.91C276.84 366.809 278.417 371.836 277.945 377.985C277.382 385.332 271.046 389.721 273.573 397.91C275.505 404.174 283.233 406.475 288.999 404.258C294.945 401.971 296.868 395.886 295.772 390.015C294.562 383.536 286.692 383.355 285.344 376.985C283.312 367.38 285 355.807 285 346C285 337.978 284.993 332.077 278 327z"/>
<path style="fill:#020202; stroke:none;" d="M283.307 391.136C279.452 393.24 283.07 398.325 286.643 395.957C289.885 393.807 286.436 389.428 283.307 391.136M223.603 392.082C221.132 393.872 223.918 397.713 226.397 395.918C228.868 394.128 226.082 390.287 223.603 392.082M253.618 392.086C251.107 393.882 253.814 398.278 256.566 396.825C259.9 395.064 256.592 389.958 253.618 392.086z"/>
</svg>
